<?xml version="1.0" encoding="utf-8"?>
<!-- Generator: Adobe Illustrator 25.0.0, SVG Export Plug-In . SVG Version: 6.00 Build 0)  -->
<svg version="1.1" id="Layer_1" xmlns="http://www.w3.org/2000/svg" xmlns:xlink="http://www.w3.org/1999/xlink" x="0px" y="0px"
	 viewBox="0 0 230 115" style="enable-background:new 0 0 230 115;" xml:space="preserve">
<style type="text/css">
	.st0{fill:#FEFEFE;}
	.st1{fill:#AFAFAF;}
	.st2{fill:#B3B3B3;}
	.st3{fill:#B4B4B4;}
	.st4{fill:#7AA89E;}
	.st5{fill:#79A79D;}
	.st6{fill:#7DA9A0;}
	.st7{fill:#363636;}
	.st8{fill:#353535;}
	.st9{fill:#393939;}
	.st10{fill:#343434;}
	.st11{fill:#FBFBFB;}
	.st12{fill:#7EAAA1;}
	.st13{fill:#FBFCFC;}
</style>
<g>
	<g>
		<path class="st0" d="M45.26,112.22c-12.69,0-25.39-0.03-38.08,0.04C5.57,112.27,5,112.05,5,110.19
			C5.07,75.45,5.07,40.71,5.01,5.97C5.01,4.35,5.3,4,6.95,4.01C36.61,4.07,66.27,4.08,95.93,4c1.86,0,2.07,0.58,2.06,2.19
			c-0.06,14.08-0.03,28.16-0.03,42.25c-0.58,0.57-0.97,1.31-1.64,1.79c-2.88,1.59-3.64,4.08-3.6,7.26
			c0.13,9.47,0.07,18.94,0.04,28.4c-0.02,5.72-0.89,6.57-6.69,6.58c-15.01,0.03-30.02,0.14-45.02-0.06
			c-4.81-0.07-8.86,1.05-12.56,4.89c4.62,0.02,8.94,0,13.26,0.01c2.19,0,4.39,0,6.58,0.01c2.48,0.02,4.63,0.33,4.86,3.55
			c0.26,3.57-0.45,4.95-4.04,5.4c-3.34,0.42-2.52,3.03-3.18,4.9C45.77,111.55,45.54,111.9,45.26,112.22z"/>
		<path class="st1" d="M45.28,111.53c-0.03-0.92,0.03-1.86-0.11-2.76c-0.42-2.78,0.78-3.84,3.47-3.4c2.9,0.48,3.68-0.75,3.69-3.61
			c0.01-2.85-0.96-3.48-3.59-3.41c-6.57,0.17-13.15,0.07-19.72,0.04c-1.08-0.01-2.25,0.34-3.54-0.56c4.81-3.51,9-6.89,15.68-6.64
			c15.43,0.58,30.9,0.11,46.35,0.25c3.11,0.03,4.22-0.74,4.15-4.03c-0.21-10.03,0.18-20.08-0.19-30.1c-0.16-4.27,1.29-6.74,5.05-8.2
			c1.98,0.45,1.01,2.05,1.01,3.06c0.08,12.31,0.04,24.62,0.07,36.93c0,1.24-0.34,2.53,0.34,3.72c0,0.69,0,1.39,0,2.08
			c-1.39,3.29-4.04,4.48-7.43,4.49c-6.08,0.03-12.16-0.01-18.23,0.03c-1.48,0.01-3-0.21-4.35,0.63c-1.58,3.39-1.05,4.4,2.6,5.02
			c2.78,0.47,3.89,2.16,3.24,4.88c-0.27,1.1-0.74,1.94-2.04,1.91C62.92,111.67,54.1,112.3,45.28,111.53z"/>
		<path class="st0" d="M66.83,98.37c7.09,0.01,14.19-0.15,21.27,0.1c3.9,0.14,7.21-0.61,9.85-3.58c0,5.2-0.07,10.4,0.05,15.6
			c0.03,1.49-0.29,1.8-1.78,1.78c-7.51-0.1-15.02-0.05-22.53-0.05c-0.05-0.1-0.13-0.2-0.16-0.3c-0.53-1.89,0.61-4.17-0.52-5.66
			c-1.16-1.52-3.42-0.4-5.18-0.63c-0.99-0.13-1.46-0.59-1.39-1.54C66.59,102.18,65.98,100.22,66.83,98.37z"/>
		<path class="st2" d="M66.83,98.37c-0.05,1.37-0.02,2.75-0.17,4.11c-0.26,2.29,0.73,3.22,2.94,2.86c3.36-0.55,4.58,0.87,4.07,4.14
			c-0.14,0.89,0.01,1.83,0.02,2.75c-9.47,0-18.95,0-28.42,0c0.01-0.23,0.01-0.46,0.02-0.69c8.2,0,16.4-0.04,24.6,0.03
			c2.06,0.02,3.19-0.31,3.18-2.79c0-2.44-1.06-2.84-3.15-2.83C65.72,105.97,64.72,103.41,66.83,98.37z"/>
		<path class="st3" d="M97.95,92.81c-1.13-1.02-0.67-2.37-0.67-3.58c-0.03-12.19-0.01-24.38-0.04-36.57c0-1.21,0.45-2.56-0.71-3.56
			c0.32-0.54,0.81-0.73,1.42-0.67C97.95,63.22,97.95,78.02,97.95,92.81z"/>
		<path class="st1" d="M95.69,41.02c-4.69,7.19-11.38,4.72-17.5,4.45c-3.56-0.16-7.09-0.98-10.64-1.05
			c-2.46-0.05-3.39-1.16-4.12-3.23c-2.41-6.8-4.96-13.55-7.75-21.13c-2.74,6.31-5.22,11.82-7.53,17.4
			c-2.73,6.59-2.68,6.55-9.97,6.75c-5.75,0.16-11.53-0.3-17.65,0.94c5.34,4.77,10.4,9.43,15.64,13.88c2.3,1.95,3.03,3.7,1.95,6.78
			c-1.9,5.42-3.29,11.04-4.62,16.63c-1.01,4.25-4.47,5.3-7.95,6.63c2.06-7.5,3.98-15.04,6.27-22.47c0.71-2.32,0.18-3.57-1.49-5.01
			c-7.06-6.11-14.06-12.31-21.04-18.51c-1.08-0.96-2.4-1.75-3.18-3.5c5.31-0.36,10.45-0.25,15.56-0.72
			c5.85-0.53,11.74-0.67,17.62-0.71c2.32-0.02,2.9-1.41,3.58-3.03c4.08-9.67,8.15-19.33,12.25-28.99c0.17-0.39,0.48-0.72,0.98-1.46
			c3.17,8.44,6.2,16.5,9.23,24.56c0.57,1.51,1.42,2.99,1.64,4.55c0.68,4.79,4.04,5.36,7.91,5.61
			C81.72,39.83,88.58,40.45,95.69,41.02z"/>
	</g>
</g>
<g>
	<g>
		<path class="st0" d="M220.98,58.11c0,18.65-0.01,37.3,0.02,55.95c0,0.78-0.15,0.93-0.93,0.93c-37.38-0.02-74.76-0.02-112.14,0
			c-0.78,0-0.93-0.15-0.93-0.93c0.02-37.38,0.02-74.76,0-112.14c0-0.78,0.15-0.93,0.93-0.93c37.38,0.02,74.76,0.02,112.14,0
			c0.78,0,0.93,0.15,0.93,0.93C220.97,20.66,220.98,39.39,220.98,58.11z"/>
		<path class="st4" d="M185.07,51.29c0,1.89,0.01,3.79,0,5.68c-0.03,3.72-2.64,6.33-6.38,6.4c-3.8,0.07-6.24-1.46-7.15-4.51
			c-0.21-0.69-0.31-1.4-0.31-2.12c0-3.86,0-7.73,0-11.59c0-1.31,0.19-1.5,1.51-1.53c0.98-0.02,1.97,0,2.95,0
			c0.94,0,1.34,0.43,1.33,1.4c-0.03,3.75-0.01,7.5-0.01,11.25c0,0.38,0,0.76,0.05,1.13c0.07,0.61,0.44,0.94,1.06,0.97
			c0.62,0.03,1.03-0.27,1.17-0.85c0.1-0.4,0.08-0.83,0.08-1.24c0.01-3.71,0-7.42,0-11.13c0-1.33,0.17-1.51,1.49-1.53
			c0.98-0.01,1.97,0,2.95,0c0.88,0,1.28,0.36,1.26,1.31C185.03,47.05,185.07,49.17,185.07,51.29z"/>
		<path class="st5" d="M139.05,50.77c-0.49,0-0.99-0.03-1.48,0.01c-0.87,0.06-1.36-0.25-1.41-1.19c-0.04-0.81-0.61-1.07-1.34-1.07
			c-0.39,0-0.78,0.05-0.92,0.5c-0.13,0.41,0.02,0.77,0.35,1c0.49,0.35,1.01,0.67,1.53,0.96c1.19,0.67,2.43,1.25,3.57,1.98
			c1.74,1.11,2.75,2.7,2.6,4.84c-0.16,2.3-1.24,4-3.41,4.94c-3.05,1.32-6.84,0.74-8.89-1.37c-1.16-1.19-1.54-2.64-1.49-4.26
			c0.02-0.71,0.47-0.93,1.03-0.95c1.17-0.04,2.35-0.03,3.52,0c0.62,0.02,1.03,0.28,1.13,1.01c0.13,0.97,0.87,1.42,1.77,1.19
			c0.7-0.18,0.89-0.77,0.34-1.25c-0.4-0.34-0.89-0.56-1.36-0.8c-1.51-0.78-3.09-1.44-4.37-2.61c-1.85-1.69-2.52-3.76-1.75-6.16
			c0.78-2.42,2.67-3.62,5.08-3.95c2.02-0.27,4.01-0.09,5.76,1.16c1.61,1.15,2.46,2.7,2.53,4.7c0.04,1.01-0.36,1.39-1.33,1.33
			C140.04,50.74,139.54,50.77,139.05,50.77z"/>
		<path class="st5" d="M196.65,50.77c-0.45,0-0.91-0.03-1.36,0.01c-0.86,0.06-1.37-0.19-1.4-1.17c-0.02-0.71-0.54-1.05-1.23-1.08
			c-0.42-0.02-0.87-0.01-1.02,0.51c-0.13,0.44,0,0.84,0.4,1.09c0.51,0.32,1.03,0.64,1.57,0.91c1.19,0.58,2.35,1.22,3.47,1.93
			c1.95,1.25,2.78,3.01,2.51,5.31c-0.24,2.06-1.28,3.58-3.17,4.37c-2.81,1.18-5.62,1.17-8.24-0.57c-1.77-1.17-2.39-2.94-2.28-5.02
			c0.04-0.73,0.52-0.89,1.07-0.91c1.14-0.04,2.27-0.02,3.41-0.01c0.71,0.01,1.14,0.34,1.17,1.09c0.02,0.5,0.25,0.91,0.74,1.04
			c0.54,0.14,1.2,0.35,1.54-0.27c0.38-0.69-0.2-1.02-0.72-1.3c-1.4-0.75-2.87-1.4-4.2-2.26c-3.19-2.06-4.02-5.78-1.88-8.52
			c1.94-2.5,4.68-2.78,7.52-2.22c2.69,0.53,4.44,2.18,4.96,4.96c0.33,1.76,0.04,2.09-1.73,2.09
			C197.41,50.77,197.03,50.77,196.65,50.77z"/>
		<path class="st4" d="M155.27,56.17c0,1.83,0,3.66,0,5.49c0,1.48-0.12,1.6-1.61,1.62c-0.95,0.01-1.89,0.01-2.84-0.01
			c-0.8-0.02-1.25-0.34-1.25-1.24c0.02-5.72,0.02-11.43,0-17.15c0-0.9,0.45-1.25,1.24-1.24c2.61,0.02,5.23-0.22,7.82,0.17
			c2.33,0.35,3.94,1.72,4.62,4c0.75,2.49,0.48,4.83-1.55,6.66c-0.62,0.56-0.7,0.95-0.39,1.69c0.78,1.88,1.47,3.81,2.18,5.72
			c0.38,1.03,0.2,1.33-0.88,1.38c-1.21,0.05-2.42,0.03-3.63,0c-0.67-0.01-1.07-0.34-1.3-1.03c-0.65-2.04-1.38-4.06-2.08-6.09
			C155.49,56.15,155.38,56.16,155.27,56.17z"/>
		<path class="st6" d="M164.54,53.34c0-2.8,0.03-5.61-0.02-8.41c-0.02-0.96,0.4-1.3,1.27-1.31c1.1,0,2.2-0.01,3.3,0
			c0.76,0.01,1.16,0.33,1.16,1.18c-0.02,5.76-0.02,11.52,0,17.27c0,0.7-0.23,1.12-0.93,1.14c-1.29,0.04-2.57,0.05-3.86,0.02
			c-0.79-0.02-0.93-0.58-0.92-1.27C164.55,59.09,164.54,56.22,164.54,53.34z"/>
		<path class="st6" d="M148.45,53.53c0,2.8-0.04,5.6,0.02,8.4c0.02,1.02-0.41,1.36-1.33,1.35c-1.06-0.01-2.12,0.01-3.18-0.01
			c-0.81-0.02-1.22-0.39-1.21-1.27c0.02-5.71,0.02-11.43,0-17.14c0-0.82,0.39-1.2,1.15-1.22c1.13-0.03,2.27-0.02,3.4-0.01
			c0.84,0,1.18,0.4,1.17,1.28C148.42,47.78,148.45,50.66,148.45,53.53z"/>
		<path class="st7" d="M180.36,73.96c0-0.51-0.01-1.02,0-1.53c0.01-0.4-0.11-0.87,0.57-0.86c0.74,0.01,0.47,0.56,0.48,0.9
			c0.03,0.94,0.03,1.89,0,2.83c-0.01,0.26,0.2,0.66-0.25,0.75c-0.36,0.07-0.73,0.09-1-0.31c-0.49-0.71-1.03-1.39-1.77-2.38
			c0,0.91-0.02,1.51,0.01,2.12c0.02,0.43-0.13,0.59-0.58,0.61c-0.51,0.01-0.52-0.26-0.52-0.63c0.01-1.02-0.01-2.04,0.01-3.06
			c0.01-0.29-0.21-0.72,0.32-0.81c0.4-0.07,0.72,0.04,0.98,0.4c0.49,0.69,1.02,1.36,1.53,2.03C180.21,74,180.28,73.98,180.36,73.96z
			"/>
		<path class="st7" d="M147.11,76.11c-1.4,0.02-2.45-0.94-2.46-2.25c-0.01-1.3,1.06-2.31,2.44-2.3c1.31,0.01,2.38,0.98,2.42,2.22
			C149.54,75.06,148.48,76.09,147.11,76.11z"/>
		<path class="st7" d="M173.03,76.11c-1.4,0.01-2.44-0.95-2.45-2.27c0-1.3,1.07-2.3,2.45-2.28c1.31,0.02,2.37,1,2.4,2.23
			C175.46,75.07,174.4,76.1,173.03,76.11z"/>
		<path class="st8" d="M156.13,73.29c0-0.3,0-0.61,0-0.91c0-0.42-0.08-0.83,0.6-0.81c0.7,0.02,0.53,0.49,0.54,0.87
			c0.02,0.57,0,1.14,0.01,1.71c0.01,0.63,0.3,1.03,0.96,1.01c0.61-0.02,0.85-0.44,0.86-0.99c0.01-0.68,0.02-1.36,0-2.05
			c-0.01-0.38,0.12-0.54,0.52-0.54c0.42,0,0.64,0.1,0.62,0.57c-0.02,0.53,0,1.06-0.01,1.59c-0.01,1.67-0.62,2.38-2.05,2.38
			c-1.46,0-2.04-0.67-2.06-2.36C156.13,73.6,156.13,73.45,156.13,73.29z"/>
		<path class="st8" d="M141.21,76.11c-0.59,0.02-1.11-0.17-1.62-0.44c-0.37-0.2-0.3-0.44-0.14-0.75c0.18-0.36,0.38-0.25,0.62-0.1
			c0.16,0.1,0.33,0.18,0.51,0.23c0.42,0.11,1.01,0.39,1.17-0.18c0.14-0.52-0.51-0.51-0.88-0.64c-0.63-0.24-1.35-0.37-1.37-1.27
			c-0.02-0.67,0.34-1.05,0.93-1.25c0.84-0.29,1.64-0.17,2.39,0.28c0.27,0.17,0.02,0.39-0.05,0.59c-0.1,0.26-0.23,0.3-0.52,0.22
			c-0.5-0.14-1.23-0.71-1.46-0.01c-0.18,0.55,0.74,0.56,1.19,0.73c0.74,0.28,1.18,0.72,0.99,1.53
			C142.76,75.95,142,76.08,141.21,76.11z"/>
		<path class="st8" d="M185.41,71.51c0.36,0.08,0.77,0.15,1.16,0.28c0.26,0.09,0.61,0.18,0.36,0.62c-0.16,0.28-0.22,0.5-0.66,0.35
			c-0.45-0.16-1.17-0.68-1.37-0.03c-0.21,0.66,0.7,0.57,1.13,0.76c0.65,0.28,1.15,0.61,1.06,1.39c-0.09,0.82-0.69,1.11-1.42,1.2
			c-0.65,0.08-1.27-0.04-1.86-0.34c-0.35-0.18-0.53-0.38-0.32-0.79c0.21-0.39,0.44-0.31,0.72-0.1c0.09,0.07,0.2,0.09,0.31,0.13
			c0.45,0.16,1.09,0.48,1.29-0.09c0.19-0.56-0.53-0.55-0.92-0.69c-0.74-0.26-1.48-0.55-1.27-1.55
			C183.8,71.72,184.59,71.63,185.41,71.51z"/>
		<path class="st9" d="M163.89,71.57c0.45,0,0.91,0.01,1.36,0c0.32-0.01,0.49,0.11,0.5,0.46c0.01,0.33-0.11,0.52-0.45,0.47
			c-0.94-0.14-0.94,0.45-0.9,1.1c0.03,0.49,0.04,0.99-0.01,1.47c-0.04,0.41,0.31,1.06-0.59,1.02c-0.88-0.03-0.48-0.68-0.54-1.08
			c-0.06-0.41-0.01-0.83-0.01-1.25c0-0.65,0.21-1.45-0.94-1.28c-0.27,0.04-0.39-0.17-0.38-0.44c0.01-0.32,0.16-0.48,0.49-0.48
			C162.91,71.58,163.4,71.57,163.89,71.57z"/>
		<path class="st10" d="M151.37,73.84c0-0.57,0.01-1.14,0-1.7c-0.01-0.36,0.08-0.57,0.51-0.56c0.39,0.01,0.66,0.05,0.64,0.54
			c-0.03,0.68,0.05,1.37-0.02,2.04c-0.08,0.8,0.19,1.09,0.99,1c0.33-0.03,0.91-0.28,0.89,0.47c-0.02,0.74-0.6,0.43-0.93,0.43
			C151.37,76.12,151.37,76.11,151.37,73.84z"/>
		<path class="st8" d="M168.66,73.88c0,0.57-0.02,1.13,0.01,1.7c0.03,0.52-0.28,0.5-0.64,0.52c-0.41,0.02-0.52-0.15-0.51-0.53
			c0.02-1.13,0.02-2.26,0-3.39c-0.01-0.42,0.13-0.6,0.58-0.6c0.46,0,0.58,0.2,0.57,0.61C168.65,72.75,168.66,73.31,168.66,73.88z"/>
		<path class="st0" d="M184.39,51.52c0,2.01,0.06,4.02-0.02,6.02c-0.09,2.36-1.64,4.24-3.9,4.9c-3.15,0.92-6.24-0.03-7.69-2.35
			c-0.67-1.07-0.88-2.26-0.89-3.47c-0.03-3.71,0.01-7.43-0.03-11.14c-0.01-0.84,0.22-1.18,1.08-1.09c0.68,0.07,1.37,0.08,2.04,0
			c1.07-0.13,1.43,0.21,1.41,1.35c-0.08,3.71-0.04,7.43-0.02,11.14c0.01,1.54,0.83,2.34,2.11,2.15c0.98-0.15,1.54-0.9,1.55-2.18
			c0.01-3.6,0-7.2,0.01-10.8c0.01-1.86-0.25-1.63,1.62-1.64c2.76-0.01,2.76,0,2.76,2.79c0,1.44,0,2.88,0,4.32
			C184.41,51.52,184.4,51.52,184.39,51.52z"/>
		<path class="st0" d="M138.96,50.12c-0.34,0-0.68-0.03-1.02,0.01c-0.69,0.07-1.05-0.07-1.2-0.9c-0.2-1.17-1.64-1.73-2.72-1.22
			c-0.83,0.39-1.08,1.31-0.54,2.1c0.37,0.55,0.93,0.87,1.51,1.18c1.2,0.64,2.42,1.26,3.59,1.94c1.93,1.12,3.02,2.72,2.64,5.05
			c-0.38,2.33-1.74,3.82-4.22,4.27c-2.57,0.46-5.08,0.34-7.03-1.8c-0.77-0.85-1.1-1.87-1.15-3.01c-0.03-0.65,0.22-0.88,0.85-0.84
			c0.6,0.04,1.21,0.02,1.82,0.01c0.86-0.02,1.63-0.16,1.92,1.1c0.23,1.01,1.89,1.37,2.82,0.83c0.89-0.53,0.95-1.69-0.01-2.34
			c-0.9-0.61-1.92-1.06-2.89-1.56c-0.94-0.48-1.87-0.99-2.67-1.7c-1.52-1.35-2.13-3.03-1.71-5c0.43-1.99,1.75-3.26,3.69-3.77
			c2.24-0.59,4.44-0.49,6.41,0.89c1.24,0.87,1.95,2.07,2.11,3.6c0.09,0.82-0.09,1.33-1.07,1.18
			C139.73,50.08,139.34,50.12,138.96,50.12z"/>
		<path class="st0" d="M196.72,50.12c-0.34,0-0.68-0.02-1.02,0.01c-0.66,0.06-1.07-0.01-1.22-0.87c-0.19-1.11-1.39-1.65-2.5-1.35
			c-0.95,0.26-1.35,1.31-0.81,2.17c0.36,0.57,0.93,0.88,1.49,1.19c1.19,0.65,2.39,1.31,3.59,1.95c2.17,1.16,3.02,2.97,2.66,5.38
			c-0.3,1.97-1.79,3.5-4.16,3.95c-2.19,0.42-4.38,0.37-6.3-1.06c-1.24-0.92-1.84-2.15-1.9-3.69c-0.02-0.61,0.13-0.93,0.81-0.89
			c0.6,0.04,1.21,0.02,1.82,0c0.87-0.02,1.65-0.15,1.93,1.12c0.21,0.97,1.96,1.34,2.84,0.81c0.92-0.57,0.91-1.79-0.1-2.42
			c-0.9-0.56-1.87-0.99-2.82-1.47c-0.98-0.5-1.93-1.04-2.75-1.79c-2.98-2.73-2.08-7.32,1.75-8.58c2.36-0.78,4.7-0.65,6.82,0.85
			c1.22,0.86,1.81,2.1,2.04,3.53c0.13,0.81-0.05,1.34-1.04,1.18C197.49,50.08,197.1,50.12,196.72,50.12z"/>
		<path class="st0" d="M150.24,53.49c0-2.69,0.03-5.38-0.02-8.06c-0.01-0.77,0.18-1.06,1-1.04c2.19,0.05,4.39,0,6.59,0.02
			c2.29,0.03,4.08,1.34,4.81,3.47c0.79,2.3,0.23,4.89-1.5,6.21c-0.78,0.6-0.9,1.11-0.53,1.99c0.76,1.81,1.37,3.68,2.12,5.5
			c0.34,0.83,0.07,0.92-0.68,0.93c-3.59,0.04-3.59,0.06-4.7-3.29c-0.32-0.97-0.66-1.93-0.96-2.9c-0.18-0.57-0.36-1.1-1.14-0.95
			c-0.78,0.15-0.59,0.79-0.6,1.27c-0.03,1.59-0.05,3.18,0.01,4.77c0.03,0.82-0.18,1.18-1.07,1.11c-1.05-0.09-2.41,0.32-3.09-0.2
			c-0.73-0.56-0.21-1.99-0.24-3.03C150.21,57.35,150.24,55.42,150.24,53.49z"/>
		<path class="st0" d="M169.57,53.51c0,2.65-0.04,5.3,0.02,7.94c0.02,0.87-0.26,1.13-1.1,1.06c-0.83-0.07-1.66-0.04-2.49-0.01
			c-0.56,0.02-0.82-0.17-0.82-0.77c0.01-5.52,0.01-11.04,0-16.56c0-0.61,0.27-0.74,0.82-0.77c3.57-0.2,3.57-0.21,3.57,3.33
			C169.57,49.65,169.57,51.58,169.57,53.51z"/>
		<path class="st0" d="M143.42,53.46c0-2.69,0.03-5.37-0.02-8.05c-0.01-0.8,0.24-1.07,1.03-1.01c0.75,0.06,1.52,0.07,2.27,0
			c0.95-0.1,1.12,0.32,1.12,1.17c-0.03,5.26-0.04,10.51,0.01,15.77c0.01,0.97-0.31,1.27-1.23,1.18c-1.01-0.11-2.31,0.41-2.96-0.21
			c-0.66-0.63-0.19-1.94-0.21-2.95C143.39,57.39,143.42,55.42,143.42,53.46z"/>
		<path class="st11" d="M148.31,73.88c-0.1,0.75-0.45,1.32-1.29,1.28c-0.82-0.04-1.2-0.59-1.17-1.38c0.02-0.76,0.48-1.23,1.21-1.23
			C147.87,72.53,148.25,73.09,148.31,73.88z"/>
		<path class="st11" d="M174.24,73.84c-0.08,0.75-0.4,1.33-1.24,1.32c-0.82-0.01-1.22-0.54-1.22-1.34c0-0.76,0.43-1.24,1.17-1.28
			C173.76,72.51,174.16,73.04,174.24,73.84z"/>
		<path class="st12" d="M154.62,49.96c0-1.88,0-1.88,1.37-1.88c1.77,0,2.54,0.59,2.57,1.99c0.03,1.32-0.92,2.09-2.55,2.08
			C154.68,52.13,154.62,52.04,154.62,49.96z"/>
		<path class="st13" d="M155.28,50.17c0-0.77-0.23-1.57,0.99-1.46c1.1,0.1,1.68,0.51,1.65,1.4c-0.03,0.92-0.67,1.35-1.83,1.39
			C154.84,51.54,155.42,50.62,155.28,50.17z"/>
	</g>
</g>
</svg>
